<?xml version="1.0" encoding="UTF-8" standalone="no"?>
<!-- Created with Inkscape (http://www.inkscape.org/) -->

<svg
   xmlns:dc="http://purl.org/dc/elements/1.1/"
   xmlns:cc="http://creativecommons.org/ns#"
   xmlns:rdf="http://www.w3.org/1999/02/22-rdf-syntax-ns#"
   xmlns:svg="http://www.w3.org/2000/svg"
   xmlns="http://www.w3.org/2000/svg"
   xmlns:sodipodi="http://sodipodi.sourceforge.net/DTD/sodipodi-0.dtd"
   xmlns:inkscape="http://www.inkscape.org/namespaces/inkscape"
   width="630"
   height="150"
   id="svg3893"
   version="1.1"
   inkscape:version="0.47 "
   sodipodi:docname="15-Bayreuther_Festspiele_für_Kinder_Logo.svg">
  <defs
     id="defs3895">
    <inkscape:perspective
       sodipodi:type="inkscape:persp3d"
       inkscape:vp_x="0 : 526.18109 : 1"
       inkscape:vp_y="0 : 1000 : 0"
       inkscape:vp_z="744.09448 : 526.18109 : 1"
       inkscape:persp3d-origin="372.04724 : 350.78739 : 1"
       id="perspective3901" />
    <inkscape:perspective
       id="perspective3756"
       inkscape:persp3d-origin="0.5 : 0.33333333 : 1"
       inkscape:vp_z="1 : 0.5 : 1"
       inkscape:vp_y="0 : 1000 : 0"
       inkscape:vp_x="0 : 0.5 : 1"
       sodipodi:type="inkscape:persp3d" />
    <clipPath
       id="clipPath2863"
       clipPathUnits="userSpaceOnUse">
      <path
         id="path2865"
         d="m 149.27,664.148 412.819,0 0,135.694 -412.819,0 0,-135.694 z" />
    </clipPath>
    <clipPath
       id="clipPath2871"
       clipPathUnits="userSpaceOnUse">
      <path
         id="path2873"
         d="m 149.27,664.148 412.819,0 0,135.694 -412.819,0 0,-135.694 z" />
    </clipPath>
    <clipPath
       id="clipPath2883"
       clipPathUnits="userSpaceOnUse">
      <path
         id="path2885"
         d="m 149.27,664.148 412.819,0 0,135.694 -412.819,0 0,-135.694 z" />
    </clipPath>
    <inkscape:perspective
       id="perspective2954"
       inkscape:persp3d-origin="0.5 : 0.33333333 : 1"
       inkscape:vp_z="1 : 0.5 : 1"
       inkscape:vp_y="0 : 1000 : 0"
       inkscape:vp_x="0 : 0.5 : 1"
       sodipodi:type="inkscape:persp3d" />
    <clipPath
       id="clipPath3068"
       clipPathUnits="userSpaceOnUse">
      <path
         id="path3070"
         d="m 84.718,494.219 -53.441,0 0,-167.254 53.441,0" />
    </clipPath>
    <clipPath
       id="clipPath3020"
       clipPathUnits="userSpaceOnUse">
      <path
         id="path3022"
         d="m 0,792.05 612,0 0,-792 -612,0 0,792 z" />
    </clipPath>
    <clipPath
       id="clipPath3014"
       clipPathUnits="userSpaceOnUse">
      <path
         id="path3016"
         d="M 0,792 612,792 612,0 0,0 0,792 z m 612,0 z" />
    </clipPath>
    <clipPath
       id="clipPath3008"
       clipPathUnits="userSpaceOnUse">
      <path
         id="path3010"
         clip-rule="evenodd"
         d="m 541.097,218.593 63.628,0 0,-167.704 -63.628,0 0,167.704 z m 63.628,0 z" />
    </clipPath>
    <clipPath
       id="clipPath3002"
       clipPathUnits="userSpaceOnUse">
      <path
         id="path3004"
         d="m 604.725,218.593 -75.59,0 0,-175.59 75.59,0" />
    </clipPath>
    <clipPath
       id="clipPath2990"
       clipPathUnits="userSpaceOnUse">
      <path
         id="path2992"
         d="m 0,792.05 612,0 0,-792 -612,0 0,792 z" />
    </clipPath>
    <clipPath
       id="clipPath2984"
       clipPathUnits="userSpaceOnUse">
      <path
         id="path2986"
         d="M 0,792 612,792 612,0 0,0 0,792 z m 612,0 z" />
    </clipPath>
    <clipPath
       id="clipPath2978"
       clipPathUnits="userSpaceOnUse">
      <path
         id="path2980"
         clip-rule="evenodd"
         d="m -4.275,797.593 630,0 0,-801 -630,0 0,801 z m 630,0 z" />
    </clipPath>
    <inkscape:perspective
       id="perspective2968"
       inkscape:persp3d-origin="0.5 : 0.33333333 : 1"
       inkscape:vp_z="1 : 0.5 : 1"
       inkscape:vp_y="0 : 1000 : 0"
       inkscape:vp_x="0 : 0.5 : 1"
       sodipodi:type="inkscape:persp3d" />
  </defs>
  <sodipodi:namedview
     id="base"
     pagecolor="#ffffff"
     bordercolor="#666666"
     borderopacity="1.0"
     inkscape:pageopacity="0.0"
     inkscape:pageshadow="2"
     inkscape:zoom="0.9193274"
     inkscape:cx="722.71194"
     inkscape:cy="89.143307"
     inkscape:document-units="px"
     inkscape:current-layer="layer1"
     showgrid="false"
     inkscape:window-width="1680"
     inkscape:window-height="964"
     inkscape:window-x="-4"
     inkscape:window-y="-4"
     inkscape:window-maximized="1" />
  <metadata
     id="metadata3898">
    <rdf:RDF>
      <cc:Work
         rdf:about="">
        <dc:format>image/svg+xml</dc:format>
        <dc:type
           rdf:resource="http://purl.org/dc/dcmitype/StillImage" />
        <dc:title></dc:title>
      </cc:Work>
    </rdf:RDF>
  </metadata>
  <g
     inkscape:label="Ebene 1"
     inkscape:groupmode="layer"
     id="layer1"
     transform="translate(-92.031637,-397.151)">
    <path
       d="m -188.62976,244.36269 0,0"
       style="fill:#ffffff;fill-opacity:1;fill-rule:nonzero;stroke:none"
       id="path2972" />
    <path
       d="m 282.6329,497.32933 c -22.29835,0 -38.47582,-18.49974 -38.47582,-43.9819 0,-19.04797 12.94667,-38.3192 37.68869,-38.3192 25.0514,0 38.15473,21.81278 38.15473,43.35532 0,22.93278 -15.36293,38.94578 -37.3676,38.94578 m 78.46332,29.1594 c -16.25581,0 -32.32363,-12.01071 -46.13578,-24.29167 15.82505,-8.64288 26.73143,-27.44806 26.73143,-46.96598 0,-31.51299 -25.32162,-55.27987 -58.89447,-55.27987 -33.82743,0 -60.31995,24.70283 -60.31995,56.22365 0,31.53257 25.32161,56.22368 57.6374,56.22368 3.85346,0 7.85966,-0.50127 12.42193,-1.46463 12.40626,9.82162 34.72027,27.311 50.7607,27.311 7.75782,0 15.51565,-3.11723 21.28408,-8.54497 l 3.41486,-3.21121 -6.9002,0"
       style="fill:#4e84c4;fill-opacity:1;fill-rule:nonzero;stroke:none"
       id="path3062" />
    <g
       id="g3064"
       transform="matrix(0,-3.9161158,-3.9161158,0,2027.4506,731.54832)">
      <g
         id="g3066"
         clip-path="url(#clipPath3068)">
        <path
           d="m 84.028,405.916 -0.115,-0.307 c -0.576,-1.515 -2.861,-1.487 -4.532,-1.468 l -1.46,0.005 -12.291,-0.001 c -1.305,-0.002 -2.17,-0.002 -3.201,0.753 -1.644,1.156 -2.62,3.207 -2.62,5.49 0,3.986 2.41,5.923 7.37,5.923 l 10.742,0 0.537,0.004 c 1.67,0.019 4.879,0.046 5.455,-1.468 l 0.115,-0.307 0,8.596 -0.115,-0.31 c -0.566,-1.526 -2.727,-1.494 -4.465,-1.467 l -1.527,0.007 -11.047,0 c -2.855,0.001 -5.553,0.005 -7.941,-2.177 -1.889,-1.735 -2.972,-4.516 -2.972,-7.632 0,-2.359 0.694,-5.379 2.559,-7.411 -0.714,0 -1.916,0 -1.916,0 l 0,-6.866 0.116,0.311 c 0.579,1.55 2.868,1.523 4.54,1.505 l 1.453,-0.004 15.169,0 1.42,0.004 c 1.778,0.018 3.99,0.045 4.568,-1.505 l 0.158,-0.431 0,8.756"
           style="fill:#4e84c4;fill-opacity:1;fill-rule:nonzero;stroke:none"
           id="path3072" />
        <path
           d="m 59.809,375.103 c 0,6.066 5.684,9.823 10.95,9.823 6.046,0 10.108,-3.916 10.108,-9.745 0,-6.251 -5.706,-9.622 -11.073,-9.622 -5.972,0 -9.985,3.833 -9.985,9.544 m 20.633,-10.952 c 2.774,2.787 4.291,6.605 4.273,10.748 0.098,4.308 -1.445,8.316 -4.348,11.292 -2.692,2.755 -6.231,4.271 -9.969,4.271 -8.231,0 -14.437,-6.515 -14.437,-15.161 0,-8.567 6.43,-15.28 14.638,-15.28 3.698,0 7.193,1.467 9.843,4.13"
           style="fill:#4e84c4;fill-opacity:1;fill-rule:nonzero;stroke:none"
           id="path3074" />
      </g>
    </g>
    <path
       d="m 644.75223,429.23982 c 0,19.17722 16.63568,26.62176 31.30543,33.18125 12.28486,5.49823 22.89362,10.24455 22.89362,20.38339 0,9.48091 -11.99897,14.52487 -20.66925,14.52487 -11.70136,0 -24.13894,-4.71501 -33.28698,-12.62164 l -4.32338,-3.73208 6.08953,26.23409 0.94771,0.34852 c 8.71337,3.21122 18.42531,4.84032 28.8461,4.84032 24.30344,0 44.07981,-15.46866 44.07981,-34.47749 0,-16.86671 -16.59648,-24.44437 -31.22319,-31.12919 -11.81493,-5.40817 -22.97584,-10.49912 -22.97584,-19.29079 0,-11.87367 15.37858,-12.47284 18.46057,-12.47284 8.67419,0 17.86139,3.66941 23.4027,9.35952 l 3.20337,3.26997 0,-23.7395 -1.30405,-0.40729 c -7.54244,-2.36141 -15.63315,-3.55972 -24.04105,-3.55972 -19.09105,0 -41.4051,7.67164 -41.4051,29.28861"
       style="fill:#4e84c4;fill-opacity:1;fill-rule:nonzero;stroke:none"
       id="path3076" />
    <path
       d="m 130.46048,472.92018 c 0.28603,-0.77929 0.5287,-1.44897 0.71666,-1.96589 l 5.53347,-15.3786 c 1.54295,-3.92393 10.30722,-26.24188 12.85661,-32.7348 2.53371,6.50073 11.21183,28.82651 12.73519,32.7348 l 6.01124,15.3786 c 0.12909,0.35245 0.40338,1.04562 0.76365,1.96589 l -38.61682,0 m 45.90863,36.96031 33.67858,0 -1.01033,-0.52086 c -7.59334,-3.86129 -10.53438,-14.74808 -13.65159,-22.59598 l -0.90855,-2.29876 -33.23999,-81.97996 -23.31263,0 0.8498,1.08866 c 0.46209,0.85763 0.61483,2.06381 0.61483,4.18242 0,2.41625 -2.09121,6.97852 -3.37177,10.26022 l -0.30548,0.77149 -27.1661,67.94853 c -3.10937,8.20033 -7.76173,18.76209 -15.488228,22.62338 l -1.026015,0.52086 31.109613,0 c -0.40726,-0.13316 -1.18265,-0.7989 -2.03244,-3.7869 -0.46994,-1.63302 -0.3133,-4.17458 -0.3133,-4.89904 0,-2.24395 1.28449,-5.61965 2.63945,-9.22639 0,0 1.14351,-3.10155 2.57289,-6.9746 l 47.83535,0 c 0.80281,2.03246 1.37065,3.46576 1.37065,3.46576 l 0.74407,1.91889 c 1.63301,4.20592 2.54155,6.52034 2.54155,8.03981 0,1.87189 0.98294,8.36874 -1.03775,10.96512 l -1.09261,0.49735"
       style="fill:#4e84c4;fill-opacity:1;fill-rule:nonzero;stroke:none"
       id="path3078" />
  </g>
</svg>
