<?xml version="1.0" encoding="UTF-8"?>
<!DOCTYPE svg PUBLIC "-//W3C//DTD SVG 1.1//EN" "http://www.w3.org/Graphics/SVG/1.1/DTD/svg11.dtd">
<svg xmlns="http://www.w3.org/2000/svg" xml:space="preserve" id="Layer_1" x="0" y="0" version="1.1" viewBox="0 0 120 100">
  <style>
    .st0{fill:#ed0000}
  </style>
  <path d="M15.8 53.9c-.6-.9-1.6-2.2-1.6-3.5 0-1 .3-2 .8-2.8L45.2 5.8c.3-.3.3-.8.3-1.3 0-1.3-1-2.3-2.3-2.3H11.9C8.1 2.2 5 5.5 5 9.3v81.6c0 3.9 3.1 7 6.9 7h31.3c1.3 0 2.3-1 2.3-2.3 0-.5-.2-1-.4-1.5L15.8 53.9zM99 36.3c2.3 0 3.4-1 3.4-3.4 0-2.1-1.1-3.1-3.4-3.1s-3.4.9-3.4 3.1c.1 2.3 1.1 3.4 3.4 3.4zm.6 10.7h-3.3v6.1h3.3c1.7 0 2.5-1.1 2.5-3.2s-.8-2.9-2.5-2.9z" class="st0"/>
  <path d="M108.1 2.2H76.9c-2.8 0-4.7 1.3-7 3.3L18 49.5c-.3.3-.3.5-.3.9 0 .3.1.6.3.9l53.3 44.6c1.5 1.2 3.5 2 5.6 2H108c3.9 0 7-3.1 7-7V9.3c0-3.8-3.1-7.1-6.9-7.1zM93 10.4h3.3v4.8l4.8-4.8h4.6l-5.9 5.8L106 22h-4.7l-4.9-4.8V22H93V10.4zM99 27c4.3 0 6.7 2.1 6.7 5.9 0 4-2.4 6.2-6.7 6.2-4.3 0-6.7-2.3-6.7-6.2 0-3.8 2.4-5.9 6.7-5.9zm6.4 22.9c0 4-2 6-5.8 6H93V44.1h6.6c4 0 5.8 1.9 5.8 5.8zm-4.3 39.8-4.9-4.8v4.8H93V78.1h3.3v4.8l4.8-4.8h4.4l-5.7 5.8 6.2 5.8h-4.9zm1.4-16.9-.8-2h-5.3l-.8 2h-3.5l5-11.8h4l5 11.8h-3.6z" class="st0"/>
  <path d="M97.4 68.2h3.3L99 64.1z" class="st0"/>
</svg>