<?xml version="1.0" encoding="utf-8"?>
<!-- Generator: Adobe Illustrator 23.1.1, SVG Export Plug-In . SVG Version: 6.00 Build 0)  -->
<svg version="1.1" id="Layer_1" xmlns="http://www.w3.org/2000/svg" xmlns:xlink="http://www.w3.org/1999/xlink" x="0px" y="0px"
	 viewBox="0 0 93 28" style="enable-background:new 0 0 93 28;" xml:space="preserve">
<path d="M24,2.1C22.2,0.7,19.6,0,16.3,0H0v28h2.6V16.8h13.3c2.9,0,5.3-0.6,7.2-1.8c2.4-1.4,3.6-3.7,3.6-6.5
	C26.7,5.7,25.8,3.5,24,2.1z M21.7,12.9c-1.4,0.9-3.1,1.4-5.1,1.4h-14V2.5h14c5.2,0.1,7.4,1.9,7.5,6C24,10.5,23.3,11.8,21.7,12.9
	L21.7,12.9z M36,0h-2.5v28H36V0z M71.7,0h-3.2L57.4,12L46.2,0h-3.2l12.8,13.6L42.4,28h3.2l11.8-12.7L69.2,28h3.1L59,13.6L71.7,0z
	 M81.3,0h-2.5v28h2.5V0z M93,0h-2.5v28H93V0z"/>
</svg>
